<?xml version="1.0" encoding="utf-8" ?>
<svg xmlns="http://www.w3.org/2000/svg" xmlns:xlink="http://www.w3.org/1999/xlink" width="1024" height="1024">
	<path fill="#2400EE" transform="scale(2 2)" d="M107.426 358.084C86.0507 350.839 80.1242 340.482 80.1367 317.557L80.1358 272.042C80.1317 267.417 77.8267 254.665 84.429 254.804C90.1891 254.926 87.9539 270.63 87.9436 274.002L87.9569 306.288L122.604 306.288C125.794 307.091 144.677 305.728 146.241 307.849C146.074 308.458 145.96 309.003 145.983 309.645C146.228 316.307 133.658 312.726 131.598 314.122L87.9569 314.122C87.9199 331.622 90.3007 347.614 111.1 350.229C116.564 351.816 127.754 348.115 132.333 351.483C136.446 360.267 111.966 356.473 107.426 358.084Z"/>
	<defs>
		<linearGradient id="gradient_0" gradientUnits="userSpaceOnUse" x1="186.13393" y1="209.33586" x2="128.54695" y2="204.33231">
			<stop offset="0" stop-color="#A712FB"/>
			<stop offset="1" stop-color="#6429FF"/>
		</linearGradient>
	</defs>
	<path fill="url(#gradient_0)" transform="scale(2 2)" d="M173.915 151.031C187.552 150.423 168.239 169.613 165.891 172.54C157.322 183.22 148.895 193.922 139.891 204.245C142.679 204.052 145.578 204.231 148.379 204.233L177.871 204.231C181.062 204.23 188.053 203.394 186.716 208.899C185.994 211.868 146.47 262.224 144.91 263.193C141.888 263.61 138.148 261.37 139.873 257.902C143.488 250.637 160.01 231.199 165.551 223.948C168.42 220.195 172.085 216.329 174.3 212.19C169.268 212.19 131.981 212.765 129.779 211.789C128.474 211.211 127.981 209.458 127.543 208.229C129.269 204.371 132.919 200.881 135.563 197.577L153.1 175.875C157.183 170.828 169.165 153.6 173.915 151.031Z"/>
	<path fill="#D400F1" transform="scale(2 2)" d="M287.435 140.753C290.67 140.881 294.254 144.724 291.524 147.655C290.183 149.094 287.642 150.03 285.969 151.119C271.36 160.628 273.854 183.439 273.87 198.213L273.876 354.399C273.876 360.327 274.369 403.227 273.446 405.489C272.861 406.923 272.111 407.431 270.725 408.021C268.577 408.04 267.183 407.324 266.39 405.204C265.173 401.957 265.796 360.458 265.796 353.279L265.784 197.296C265.76 177.884 264.61 149.605 287.435 140.753Z"/>
	<path fill="#2400EE" transform="scale(2 2)" d="M109.681 71.0412C111.773 70.8497 113.984 70.9951 116.091 71.0055L167.359 71.0412C171.358 71.8568 176.589 70.8424 180.955 71.3619C178.374 72.5771 166.081 70.6573 165.627 71.8777L165.765 71.8794L165.907 71.5653L166.128 71.8848C169.393 72.2295 166.416 78.1579 162.861 78.4211C167.796 79.1022 175.89 78.0141 178.79 78.6101C174.621 78.9955 167.909 78.1811 164.861 78.8848L112.566 78.8848C98.4098 79.3459 88.1815 89.8841 87.9569 104.037C91.3913 104.244 94.9414 104.06 98.3869 104.052L119.995 104.037C123.624 106.348 123.926 111.008 119.254 111.663C115.747 112.155 111.914 111.861 108.374 111.861L87.9569 111.849L87.9569 231.513C77.6406 243.516 80.1346 215.114 80.1428 212.19C64.5733 214.82 63.243 206.829 63.2331 193.714L63.236 178.023C63.2462 160.993 59.2757 153.019 80.1428 151.732L80.1455 117.344C80.145 110.661 79.4752 103.208 80.7996 96.6588C83.6042 82.7907 95.5442 72.2336 109.681 71.0412ZM74.854 159.964C72.463 160.298 71.3306 160.81 71.074 163.338C70.5924 168.081 69.9271 202.727 72.1364 204.244C73.3652 205.088 75.2418 205.169 76.6873 205.244L80.1428 205.244L80.1428 159.964C78.3636 159.88 76.6309 159.805 74.854 159.964Z"/>
	<path fill="#5C1DFB" transform="scale(2 2)" d="M109.681 71.0412C111.773 70.8497 113.984 70.9951 116.091 71.0055L167.359 71.0412C171.358 71.8568 176.589 70.8424 180.955 71.3619C178.374 72.5771 166.081 70.6573 165.627 71.8777L165.765 71.8794L165.907 71.5653L166.128 71.8848C169.393 72.2295 166.416 78.1579 162.861 78.4211C167.796 79.1022 175.89 78.0141 178.79 78.6101C174.621 78.9955 167.909 78.1811 164.861 78.8848L112.566 78.8848C112.874 78.7296 138.085 78.4395 139.806 78.4114C146.271 78.3059 164.676 81.6493 164.836 72.4337C160.713 69.3077 139.459 71.4491 131.923 71.534C127.113 71.5882 113.528 71.5532 109.681 71.0412Z"/>
	<path fill="#D400F1" transform="scale(2 2)" d="M356.498 243.859C380.663 243.863 386 240.194 385.931 269.324C393.666 274.758 397.693 283.123 397.746 292.617L397.76 324.866C397.752 345.479 398.732 349.633 377.619 349.549L364.567 349.524L364.591 366.756C364.618 369.481 365.093 372.576 364.567 375.24C363.028 377.442 360.077 378.613 357.937 376.556C355.544 374.256 356.471 367.761 356.475 364.8L356.498 349.524C351.586 349.46 346.662 349.546 341.749 349.554C326.155 349.579 323.996 346.466 323.977 331.668L323.975 301.044C323.974 288.335 323.606 276.996 335.75 269.324L335.737 261.071C335.674 243.496 340.079 243.851 356.498 243.859ZM344.546 274.832C330.921 276.083 331.911 291.001 331.909 300.705L331.913 330.813C331.918 335.261 330.351 341.281 336.36 341.68C341.05 341.992 345.888 341.762 350.597 341.761L377.809 341.749C379.988 341.779 387.349 342.424 388.728 340.519C390.431 338.168 389.747 296.658 389.409 291.128C388.371 274.178 377.793 274.794 365.442 274.805L344.546 274.832ZM347.013 251.763C341.268 252.364 343.509 261.875 343.505 266.981L374.236 266.981L377.809 266.981C377.893 251.179 379.703 251.718 364.294 251.732L347.013 251.763Z"/>
	<defs>
		<linearGradient id="gradient_1" gradientUnits="userSpaceOnUse" x1="368.62289" y1="261.96466" x2="131.20325" y2="253.49097">
			<stop offset="0" stop-color="#E40BEE"/>
			<stop offset="1" stop-color="#6C15FF"/>
		</linearGradient>
	</defs>
	<path fill="url(#gradient_1)" transform="scale(2 2)" d="M167.359 71.0412L191.138 71.0327C209.84 71.0061 227.385 71.5134 233.098 94.7079C234.661 101.05 233.916 111.29 233.91 118.047L233.906 151.732C246.677 151.514 252.284 155.339 252.388 168.587L252.417 190.95C252.416 206.249 252.006 213.808 233.906 213.491L233.927 316.862C233.974 347.065 223.771 358.092 193.325 358.104L174.3 358.084L174.3 394.884C171.032 399.775 164.779 398.204 159.723 398.229C159.9 414.705 171.269 429.721 187.742 432.767C193.089 433.756 198.999 433.29 204.433 433.287L231.955 433.272C263.665 433.27 295.426 433.674 327.131 433.269C339.908 433.106 351.727 424.751 355.294 412.323C356.352 408.635 354.749 398.99 360.275 398.718C370.14 398.233 363.051 435.528 334.124 440.73C328.313 441.776 321.959 441.238 316.053 441.235L226.939 441.23C204.443 441.238 179.892 445.488 163.136 427.622C155.873 419.878 151.07 408.967 152.059 398.229C136.858 396.973 139.802 395.99 139.872 381.306L139.891 358.084C129.079 357.964 118.226 358.3 107.426 358.084C111.966 356.473 136.446 360.267 132.333 351.483C127.754 348.115 116.564 351.816 111.1 350.229C90.3007 347.614 87.9199 331.622 87.9569 314.122L131.598 314.122C133.658 312.726 146.228 316.307 145.983 309.645C145.96 309.003 146.074 308.458 146.241 307.849C144.677 305.728 125.794 307.091 122.604 306.288L225.866 306.288C226.223 299.2 225.876 291.901 225.871 284.794L225.866 111.849C219.005 111.556 211.998 111.84 205.124 111.841L164.088 111.845C158.359 111.848 152.53 112.121 146.813 111.849C139.712 112.051 138.375 105.958 143.233 104.037C145.611 103.668 148.408 103.982 150.841 104.006L205.23 104.04C212.099 104.041 219.002 104.221 225.866 104.037C226.306 92.9613 219.665 82.3249 208.648 79.5891C202.948 78.1737 196.071 78.8917 190.204 78.8972L164.861 78.8848C167.909 78.1811 174.621 78.9955 178.79 78.6101C175.89 78.0141 167.796 79.1022 162.861 78.4211C166.416 78.1579 169.393 72.2295 166.128 71.8848L165.907 71.5653L165.765 71.8794L165.627 71.8777C166.081 70.6573 178.374 72.5771 180.955 71.3619C176.589 70.8424 171.358 71.8568 167.359 71.0412ZM131.598 314.122L87.9569 314.122C87.9199 331.622 90.3007 347.614 111.1 350.229L197.859 350.251C223.251 350.261 225.959 335.418 225.866 314.122L162.608 314.114C152.287 314.116 141.912 314.382 131.598 314.122ZM147.891 358.084C147.89 368.749 147.514 379.553 147.891 390.203C153.959 390.281 160.035 390.243 166.103 390.203L166.103 358.084L147.891 358.084ZM233.906 159.964L233.906 205.244C236.794 205.422 240.453 206.039 242.907 204.245C245.578 200.777 244.029 192.071 244.051 187.824L244.114 171.887C244.167 160.997 245.186 159.898 233.906 159.964Z"/>
	<path fill="#5C1DFB" transform="scale(2 2)" d="M146.813 111.849C139.712 112.051 138.375 105.958 143.233 104.037C146.79 104.482 150.377 104.101 153.942 104.387L153.747 104.59C151.045 104.221 142.403 103.923 141.405 106.569C143.565 108.062 138.6 111.553 147.005 111.542L147.103 111.73L146.813 111.849Z"/>
	<path fill="#D400F1" transform="scale(2 2)" d="M371.751 70.7884C388.563 67.8844 412.822 78.914 424.872 89.7382C472.871 132.852 445.146 216.132 378.784 218.903C336.685 219.784 302.993 188.34 301.321 146.078C299.77 106.877 332.722 72.188 371.751 70.7884ZM371.751 78.8848C356.043 78.7332 339.895 86.7838 328.812 97.7063C286.222 139.678 318.135 213.813 379.812 210.993C399.547 208.698 414.771 201.512 427.472 185.376C449.764 157.055 443.93 114.478 415.772 92.43C406.448 85.1297 383.426 74.983 371.751 78.8848Z"/>
	<path fill="#D400F1" transform="scale(2 2)" d="M358.773 109.753C365.165 109.366 363.982 115.71 364.114 120.212C372.171 120.298 380.239 120.213 388.298 120.212C388.231 117.286 388.529 104.731 394.898 110.944C396.718 112.719 396.025 117.764 395.994 120.212C413.619 122.448 414.459 142.009 411.58 155.817C409.969 163.543 404.093 168.132 396.594 169.857C396.763 174.022 398.153 179.51 393.142 181.07C387.09 180.941 388.323 174.155 388.298 169.857C380.327 169.431 372.109 169.847 364.114 169.857C364.148 172.761 364.986 178.269 362.514 180.382C356.799 185.267 355.959 173.63 356.498 169.857C349.38 168.072 343.028 163.989 341.528 156.234C340.787 152.406 340.863 137.278 341.606 133.584C343.124 126.039 349.127 121.559 356.498 120.212C355.785 116.341 354.958 112.134 358.773 109.753ZM357.193 127.993C346.426 130.065 347.539 147.367 349.438 155.019C351.832 164.669 364.384 162.24 371.815 162.205L395.994 162.209C406.473 158.618 406.019 139.984 403.278 133.149C399.988 124.944 381.705 127.975 374.003 127.974C368.935 127.973 362.104 127.567 357.193 127.993Z"/>
</svg>
